<?xml version="1.0" standalone="no"?>
<!DOCTYPE svg PUBLIC "-//W3C//DTD SVG 20010904//EN"
 "http://www.w3.org/TR/2001/REC-SVG-20010904/DTD/svg10.dtd">
<svg version="1.0" xmlns="http://www.w3.org/2000/svg"
 width="480.000000pt" height="368.000000pt" viewBox="0 0 480.000000 368.000000"
 preserveAspectRatio="xMidYMid meet">

<g transform="translate(0.000000,368.000000) scale(0.100000,-0.100000)"
fill="#000000" stroke="none">
<path d="M0 1840 l0 -1840 2400 0 2400 0 0 1840 0 1840 -2400 0 -2400 0 0
-1840z m2593 1251 c69 -26 89 -104 41 -160 -22 -26 -33 -31 -71 -31 -86 0
-133 89 -82 154 33 42 69 53 112 37z m-104 -202 c35 -26 96 -27 141 -4 18 9
33 15 34 13 16 -21 36 -99 36 -141 -1 -65 -56 -210 -83 -215 -29 -6 -31 24 -6
108 23 80 21 111 -5 74 -8 -10 -23 -30 -34 -44 l-21 -25 -64 70 c-35 39 -66
73 -68 77 -4 6 32 108 39 108 1 0 16 -10 31 -21z m590 -25 c59 -49 46 -140
-24 -170 -92 -38 -179 58 -131 145 30 54 106 67 155 25z m-892 -51 c-3 -10 -5
-4 -5 12 0 17 2 24 5 18 2 -7 2 -21 0 -30z m96 -8 c63 -26 101 -69 141 -159
21 -47 36 -93 32 -101 -12 -32 -39 -9 -80 67 -45 85 -73 103 -62 41 4 -21 9
-46 12 -55 5 -16 -2 -18 -63 -16 l-68 2 58 3 58 4 -7 58 c-6 58 -6 59 17 54
18 -3 35 -24 64 -79 52 -97 74 -98 34 -1 -40 92 -68 130 -125 163 -38 22 -48
25 -55 13 -5 -8 -9 -18 -9 -24 -1 -14 -40 -62 -40 -49 0 6 6 17 14 23 8 7 18
26 21 42 8 33 10 34 58 14z m603 -40 c8 -45 53 -93 93 -101 17 -4 34 -10 37
-15 7 -12 -40 -100 -71 -131 -34 -34 -150 -90 -190 -92 -24 -1 -30 3 -30 19 0
14 20 30 70 58 98 53 102 61 32 53 l-58 -6 3 106 3 106 45 19 c60 24 58 24 66
-16z m-715 2 c-10 -9 -11 -8 -5 6 3 10 9 15 12 12 3 -3 0 -11 -7 -18z m119
-307 c44 -17 64 -45 38 -55 -7 -3 -40 4 -73 14 -33 11 -53 20 -44 20 9 1 36
-6 60 -14 64 -23 76 -1 13 25 -27 11 -58 25 -69 30 -17 9 -16 9 5 4 14 -4 45
-14 70 -24z m756 -11 c27 -11 50 -22 52 -24 2 -2 -5 -17 -17 -33 -25 -36 -28
-108 -6 -138 8 -10 15 -24 15 -31 0 -16 -96 -46 -145 -46 -48 0 -204 59 -212
80 -12 32 14 38 85 19 96 -27 112 -29 112 -20 0 5 -18 20 -40 34 -22 14 -40
30 -40 36 0 10 134 144 144 144 3 0 26 -9 52 -21z m209 -53 c67 -67 27 -176
-65 -176 -52 0 -76 13 -96 52 -20 39 -12 88 23 122 35 36 103 37 138 2z
m-1038 -31 c2 -1 -12 -15 -30 -31 -30 -27 -31 -27 -8 -2 21 24 22 30 10 45
-13 17 -13 17 6 3 11 -8 21 -15 22 -15z m126 -109 c7 -19 -15 -37 -90 -75 -33
-16 -63 -35 -66 -41 -3 -6 -4 -5 -3 2 1 7 35 31 74 53 40 22 72 46 72 52 0 16
-6 16 -29 3 -32 -17 -126 -52 -118 -44 10 10 128 62 143 63 7 1 14 -5 17 -13z
m351 -175 c23 -41 46 -72 51 -70 6 2 9 6 9 9 -1 3 -5 24 -9 48 l-7 42 106 0
106 0 14 -33 c30 -72 30 -71 -25 -90 -50 -18 -89 -61 -89 -99 0 -29 -17 -30
-69 -4 -64 33 -109 88 -145 175 -50 124 -7 140 58 22z m-218 55 c3 -8 -5 -51
-19 -95 -15 -48 -21 -84 -15 -87 5 -3 11 -4 12 -3 1 2 15 21 30 42 16 20 31
37 35 37 3 0 37 -33 74 -74 l67 -74 -21 -49 c-12 -26 -23 -50 -25 -52 -2 -2
-15 6 -29 18 -42 32 -86 36 -133 12 -23 -12 -43 -21 -46 -21 -10 0 -36 104
-36 141 0 39 16 95 50 174 19 45 45 59 56 31z m-176 -101 c0 -102 1 -100 -67
-126 -35 -13 -25 -2 19 19 l33 17 3 87 3 87 -28 4 c-27 4 -26 4 5 6 l32 1 0
-95z m-77 78 c-7 -2 -19 -2 -25 0 -7 3 -2 5 12 5 14 0 19 -2 13 -5z m-34 -157
c-3 -3 -11 5 -18 17 -13 21 -12 21 5 5 10 -10 16 -20 13 -22z m857 -20 c58
-58 38 -140 -40 -166 -78 -25 -151 48 -126 126 26 78 108 98 166 40z m-478
-163 c49 -30 55 -98 13 -145 -24 -27 -36 -33 -71 -33 -35 0 -47 6 -71 33 -37
42 -39 89 -4 131 36 43 81 47 133 14z m-578 -433 c0 -13 -240 -13 -260 0 -10
7 30 10 123 10 85 0 137 -4 137 -10z m950 -202 l140 -213 0 213 c0 182 2 212
15 212 13 0 15 -33 15 -235 0 -222 -1 -235 -19 -235 -13 0 -57 60 -151 205
-73 113 -137 205 -141 205 -5 0 -9 -92 -9 -205 0 -130 -4 -205 -10 -205 -6 0
-10 85 -10 235 0 203 2 235 15 235 9 0 75 -92 155 -212z m-1200 87 l0 -95 115
0 c70 0 115 -4 115 -10 0 -16 -219 -13 -235 4 -16 16 -20 196 -5 196 6 0 10
-41 10 -95z m725 48 l0 -48 48 -3 c26 -2 47 -7 47 -12 0 -5 -21 -10 -47 -12
l-48 -3 0 -128 c0 -123 1 -130 24 -148 13 -10 34 -19 47 -19 13 0 24 -4 24
-10 0 -22 -66 -10 -91 16 -23 24 -24 34 -27 160 l-4 134 -24 0 c-13 0 -24 5
-24 10 0 6 11 10 25 10 23 0 25 3 25 50 0 33 4 50 13 50 8 0 12 -16 12 -47z
m975 -72 c75 -38 108 -137 74 -219 -11 -25 -36 -59 -57 -76 -35 -28 -46 -31
-106 -31 -59 0 -72 4 -105 29 -70 53 -93 143 -57 222 42 92 152 125 251 75z
m290 9 c0 -11 -7 -20 -15 -20 -32 0 -77 -32 -91 -65 -9 -23 -14 -72 -14 -145
0 -91 -3 -110 -15 -110 -13 0 -15 26 -15 175 0 149 2 175 15 175 9 0 15 -10
15 -26 l0 -25 33 24 c28 22 49 31 80 36 4 0 7 -8 7 -19z m248 5 c20 -9 47 -26
59 -37 l23 -21 0 31 c0 22 5 32 15 32 21 0 22 -347 1 -388 -54 -104 -210 -119
-294 -29 -33 35 -8 47 27 13 56 -54 158 -57 214 -7 24 22 31 37 35 81 l5 54
-32 -26 c-36 -31 -84 -43 -146 -36 -56 7 -103 41 -126 92 -46 101 -4 205 98
241 50 18 76 18 121 0z m417 -4 c49 -22 73 -48 91 -98 27 -76 33 -73 -146 -73
-157 0 -160 0 -160 -21 0 -59 76 -119 151 -119 41 0 93 23 113 51 12 18 18 21
28 11 17 -17 -35 -69 -81 -82 -107 -30 -190 5 -232 95 -24 51 -24 99 0 150 22
49 48 73 98 91 52 18 91 17 138 -5z m-2315 -16 c0 -14 5 -25 10 -25 6 0 10 4
10 10 0 18 59 40 109 40 99 0 131 -60 131 -245 0 -78 -3 -95 -15 -95 -12 0
-15 20 -15 116 0 161 -24 204 -113 204 -89 -1 -117 -51 -117 -207 0 -69 -4
-113 -10 -113 -6 0 -10 63 -10 170 0 107 4 170 10 170 6 0 10 -11 10 -25z
m-469 -12 c13 -16 12 -17 -3 -4 -17 13 -22 21 -14 21 2 0 10 -8 17 -17z m26
-49 c-3 -3 -12 -4 -19 -1 -8 3 -5 6 6 6 11 1 17 -2 13 -5z m103 -129 c0 -53
-4 -95 -9 -95 -6 0 -10 42 -9 95 0 52 4 95 9 95 5 0 9 -43 9 -95z m-100 -50
c0 -8 -4 -15 -10 -15 -5 0 -7 7 -4 15 4 8 8 15 10 15 2 0 4 -7 4 -15z m370
-65 c0 -6 -57 -10 -152 -9 -95 0 -145 4 -133 9 29 12 285 12 285 0z m815 -330
c3 -6 -1 -7 -9 -4 -18 7 -21 14 -7 14 6 0 13 -4 16 -10z m57 -42 c2 -20 0 -34
-4 -32 -4 3 -8 24 -7 47 1 47 6 41 11 -15z m111 45 c-7 -2 -21 -2 -30 0 -10 3
-4 5 12 5 17 0 24 -2 18 -5z m127 3 c0 -2 -11 -6 -25 -8 -13 -3 -22 -1 -19 3
5 9 44 13 44 5z m58 -26 c9 -16 20 -30 25 -30 4 0 7 -8 7 -17 -1 -11 -12 1
-28 27 l-27 45 -6 -40 -6 -40 -2 43 c-1 49 13 54 37 12z m100 23 c-10 -2 -26
-2 -35 0 -10 3 -2 5 17 5 19 0 27 -2 18 -5z m88 -42 c0 -36 -2 -40 -9 -23 -5
11 -19 23 -31 25 -16 3 -15 5 7 6 33 1 37 28 5 34 -20 3 -20 4 2 3 23 -1 25
-5 26 -45z m62 42 c-34 -5 -38 -32 -5 -34 22 -2 22 -2 -1 -6 -18 -3 -23 -10
-19 -24 3 -10 1 -19 -4 -19 -5 0 -9 20 -9 45 0 44 0 45 33 44 30 -2 30 -2 5
-6z m97 -18 c0 -14 -8 -21 -27 -23 -18 -2 -28 -10 -31 -25 -2 -12 -5 0 -6 26
l-1 48 33 -3 c24 -2 32 -8 32 -23z m82 9 c3 -8 1 -20 -5 -26 -8 -8 -8 -18 -1
-32 9 -19 8 -19 -7 2 -9 12 -22 22 -30 22 -7 0 -15 -10 -17 -22 -2 -13 -5 -2
-6 25 -1 46 0 47 29 47 19 0 33 -6 37 -16z m66 9 c-7 -2 -21 -2 -30 0 -10 3
-4 5 12 5 17 0 24 -2 18 -5z m64 -25 l17 -33 7 35 c6 33 6 33 8 -12 0 -27 -1
-48 -3 -48 -3 0 -16 19 -30 42 l-25 42 -4 -45 -4 -44 -1 48 c-2 55 10 60 35
15z m121 -11 c4 -41 -11 -53 -52 -43 -19 5 -22 11 -19 33 8 50 12 54 40 51 24
-3 28 -8 31 -41z m80 -3 c-2 -37 -4 -42 -12 -25 -12 28 -33 27 -39 -1 -2 -13
-5 -2 -6 25 -1 46 0 47 29 47 29 0 30 -1 28 -46z m60 39 c-16 -2 -28 -11 -28
-19 0 -8 11 -15 28 -15 l27 -2 -27 -4 c-16 -2 -28 -10 -28 -18 0 -8 12 -16 28
-18 26 -5 26 -5 -3 -3 -25 1 -31 6 -33 29 -5 43 4 57 35 56 l28 -2 -27 -4z
m99 -37 c-2 -39 -3 -41 -15 -25 -16 24 -29 24 -35 2 -3 -10 -5 1 -6 25 -1 40
0 42 28 42 28 0 29 -2 28 -44z m-437 1 c25 -4 25 -4 -2 -6 -35 -1 -37 -28 -3
-34 23 -4 23 -4 -2 -3 -24 1 -28 5 -31 36 -1 19 1 30 5 24 4 -7 19 -14 33 -17z
m-811 -30 c1 -5 -3 -5 -9 -2 -5 3 -10 16 -9 28 0 21 1 21 9 2 5 -11 9 -24 9
-28z m144 26 c-7 -2 -21 -2 -30 0 -10 3 -4 5 12 5 17 0 24 -2 18 -5z m127 3
c0 -2 -11 -6 -25 -8 -14 -3 -25 -1 -25 3 0 5 11 9 25 9 14 0 25 -2 25 -4z
m-35 -36 c3 -5 1 -10 -4 -10 -6 0 -11 5 -11 10 0 6 2 10 4 10 3 0 8 -4 11 -10z"/>
<path d="M2517 3069 c-9 -5 -24 -23 -32 -39 -14 -26 -14 -34 -1 -64 25 -60 88
-75 131 -31 68 67 -15 182 -98 134z m66 -121 c-2 -5 -13 -8 -23 -8 -10 0 -21
3 -23 8 -3 4 8 7 23 7 15 0 26 -3 23 -7z"/>
<path d="M2443 2845 l-17 -35 64 -65 64 -64 30 44 c17 25 34 45 39 45 4 0 12
-11 18 -23 8 -19 6 -40 -11 -96 -25 -86 -21 -115 8 -49 41 93 52 146 41 196
-14 69 -22 78 -54 64 -36 -17 -107 -15 -131 3 -28 21 -32 19 -51 -20z"/>
<path d="M2975 2858 c-48 -28 -59 -78 -25 -120 38 -49 118 -37 138 21 25 72
-48 136 -113 99z m22 -108 c7 0 13 -5 13 -11 0 -19 -45 16 -47 37 -2 15 -1 15
9 -3 6 -13 17 -23 25 -23z"/>
<path d="M2818 2758 c-28 -10 -28 -11 -28 -100 0 -80 2 -89 18 -85 58 16 92
17 92 3 0 -32 -15 -48 -69 -76 -129 -66 -115 -83 16 -19 71 34 89 48 114 87
16 25 29 51 29 56 -1 6 -20 20 -43 31 -30 15 -48 33 -65 65 -25 51 -27 52 -64
38z"/>
<path d="M2935 2389 c-66 -67 -67 -62 6 -111 23 -16 23 -17 6 -34 -17 -18 -20
-18 -85 0 -98 27 -119 30 -107 18 22 -23 142 -63 188 -63 68 0 120 18 112 40
-25 59 -24 107 3 158 10 17 6 22 -24 36 -19 10 -36 17 -37 17 -2 0 -29 -27
-62 -61z"/>
<path d="M3125 2368 c-20 -23 -25 -38 -20 -57 20 -80 115 -98 151 -29 45 87
-68 161 -131 86z m22 -55 c1 -33 -1 -35 -9 -16 -9 19 -6 53 5 53 2 0 3 -17 4
-37z"/>
<path d="M2630 2131 c0 -7 18 -51 39 -96 34 -72 46 -88 88 -114 26 -17 53 -30
58 -30 6 0 19 19 30 42 15 30 33 48 64 64 55 28 53 24 40 61 l-11 32 -90 0
-90 0 7 -32 c4 -18 9 -43 12 -55 4 -16 1 -23 -10 -23 -33 0 -49 15 -77 69 -34
67 -59 102 -60 82z"/>
<path d="M2412 2045 c-36 -97 -39 -122 -16 -188 l16 -47 28 15 c37 19 111 19
136 0 28 -21 32 -19 49 22 l16 37 -64 64 -64 64 -29 -46 c-16 -25 -32 -46 -37
-46 -4 0 -12 11 -18 24 -9 19 -7 37 10 87 42 125 20 137 -27 14z"/>
<path d="M2927 1930 c-33 -26 -41 -63 -23 -99 30 -56 103 -62 140 -9 38 54 -4
128 -73 128 -10 0 -30 -9 -44 -20z m28 -36 c-15 -14 -29 -23 -32 -20 -7 6 35
46 48 46 7 0 0 -11 -16 -26z"/>
<path d="M2475 1770 c-29 -11 -44 -32 -51 -68 -5 -26 -1 -36 24 -62 39 -38 83
-40 117 -5 41 40 33 105 -16 130 -31 17 -45 18 -74 5z m53 -28 c8 -6 2 -9 -18
-9 -20 0 -26 3 -18 9 7 4 15 8 18 8 3 0 11 -4 18 -8z"/>
<path d="M3282 1183 c-96 -47 -108 -192 -21 -256 15 -11 47 -21 71 -24 123
-14 204 106 146 216 -38 74 -121 101 -196 64z"/>
<path d="M3851 1182 c-47 -23 -72 -61 -78 -114 -10 -84 45 -149 131 -156 94
-8 156 48 156 141 0 78 -68 147 -145 147 -16 0 -45 -8 -64 -18z"/>
<path d="M4265 1186 c-38 -16 -85 -70 -85 -97 0 -18 9 -19 140 -19 122 0 140
2 140 16 0 31 -35 75 -75 94 -48 23 -78 25 -120 6z"/>
<path d="M3470 545 c0 -9 9 -15 25 -15 16 0 25 6 25 15 0 9 -9 15 -25 15 -16
0 -25 -6 -25 -15z"/>
<path d="M3550 545 c0 -9 9 -15 25 -15 16 0 25 6 25 15 0 9 -9 15 -25 15 -16
0 -25 -6 -25 -15z"/>
<path d="M3800 540 c0 -23 4 -24 31 -10 27 15 24 30 -6 30 -18 0 -25 -5 -25
-20z"/>
<path d="M3823 518 c-30 -15 -29 -28 2 -28 18 0 25 5 25 20 0 11 -1 20 -2 19
-2 0 -13 -5 -25 -11z"/>
<path d="M3890 545 c0 -8 9 -15 20 -15 11 0 20 7 20 15 0 8 -9 15 -20 15 -11
0 -20 -7 -20 -15z"/>
<path d="M4050 545 c0 -8 9 -15 20 -15 11 0 20 7 20 15 0 8 -9 15 -20 15 -11
0 -20 -7 -20 -15z"/>
</g>
</svg>
